# xmcd CD database file
#
# Track frame offsets:
#	150
#	11640
#	30414
#	40100
#	62384
#	83459
#	89546
#	116592
#	135077
#	149553
#	164622
#	173606
#	178863
#	207974
#	219172
#	237231
#	247649
#	256553
#	264439
#	280606
#	287007
#	301465
#
# Disc length: 4277 seconds
#
# Revision: 1
# Processed by: cddbd v1.5.2PL0 Copyright (c) Steve Scherf et al.
# Submitted via: CDex 1.51
#
DISCID=1a10b316
DTITLE=Sebastian Fitzek - Splitter CD2v4
DYEAR=2009
DGENRE=Hörbuch
TTITLE0=20 Splitter
TTITLE1=21 Splitter
TTITLE2=22 Splitter
TTITLE3=23 Splitter
TTITLE4=24 Splitter
TTITLE5=25 Splitter
TTITLE6=26 Splitter
TTITLE7=27 Splitter
TTITLE8=28 Splitter
TTITLE9=29 Splitter
TTITLE10=30 Splitter
TTITLE11=31 Splitter
TTITLE12=32 Splitter
TTITLE13=33 Splitter
TTITLE14=34 Splitter
TTITLE15=35 Splitter
TTITLE16=36 Splitter
TTITLE17=37 Splitter
TTITLE18=38 Splitter
TTITLE19=39 Splitter
TTITLE20=40 Splitter
TTITLE21=41 Splitter
EXTD=gelesen von Simon Jäger YEAR: 2009
EXTT0=
EXTT1=
EXTT2=
EXTT3=
EXTT4=
EXTT5=
EXTT6=
EXTT7=
EXTT8=
EXTT9=
EXTT10=
EXTT11=
EXTT12=
EXTT13=
EXTT14=
EXTT15=
EXTT16=
EXTT17=
EXTT18=
EXTT19=
EXTT20=
EXTT21=
PLAYORDER=
